# xmcd
#
# Track frame offsets:
#	151
#	111986
#	223703
#
# Disc length: 4478 seconds
#
# Revision: 0
# Processed by: cddbd v1.4PL0 Copyright (c) Steve Scherf et al.
# Submitted via: EasyCDDAExtractor 4.5.0.2
#
DISCID=28117c03
DTITLE=LaHaye and Jenkins disk2 - Assassins
DYEAR=2001
DGENRE=Speech
TTITLE0=Leah's Secret
TTITLE1=Fire, Smoke, Sulfur
TTITLE2=Nicolae's Prayer
EXTD=ID3G:   0
EXTT0=
EXTT1=
EXTT2=
PLAYORDER=
